HIERARCHY
ROOT Hips
{
    OFFSET 0.000000 0.000000 0.000000
    CHANNELS 6 Xposition Yposition Zposition Zrotation Xrotation Yrotation
    JOINT Spine
    {
        OFFSET -0.000000 7.236184 0.000000
        CHANNELS 3 Zrotation Xrotation Yrotation
        JOINT Spine1
        {
            OFFSET -0.000000 20.420147 0.000000
            CHANNELS 3 Zrotation Xrotation Yrotation
            JOINT Neck
            {
                OFFSET -0.000000 20.336288 1.848754
                CHANNELS 3 Zrotation Xrotation Yrotation
                JOINT Head
                {
                    OFFSET -0.000000 12.354461 -1.764923
                    CHANNELS 3 Zrotation Xrotation Yrotation
                    End Site
                    {
                        OFFSET -0.000000 22.061537 0.000000
                    }
                }
            }
            JOINT LeftShoulder
            {
                OFFSET 3.573296 18.396038 -0.314103
                CHANNELS 3 Zrotation Xrotation Yrotation
                JOINT LeftArm
                {
                    OFFSET 10.880760 0.000000 0.000000
                    CHANNELS 3 Zrotation Xrotation Yrotation
                    JOINT LeftForeArm
                    {
                        OFFSET 27.185530 0.000000 0.000000
                        CHANNELS 3 Zrotation Xrotation Yrotation
                        JOINT LeftHand
                        {
                            OFFSET 27.825975 0.000000 0.000000
                            CHANNELS 3 Zrotation Xrotation Yrotation
                            End Site
                            {
                                OFFSET 13.236923 0.000000 0.000000
                            }
                        }
                    }
                }
            }
            JOINT RightShoulder
            {
                OFFSET -3.474926 18.396038 -0.314103
                CHANNELS 3 Zrotation Xrotation Yrotation
                JOINT RightArm
                {
                    OFFSET -10.880760 0.000000 0.000000
                    CHANNELS 3 Zrotation Xrotation Yrotation
                    JOINT RightForeArm
                    {
                        OFFSET -27.185530 0.000000 0.000000
                        CHANNELS 3 Zrotation Xrotation Yrotation
                        JOINT RightHand
                        {
                            OFFSET -27.825975 0.000000 0.000000
                            CHANNELS 3 Zrotation Xrotation Yrotation
                            End Site
                            {
                                OFFSET -13.236923 0.000000 0.000000
                            }
                        }
                    }
                }
            }
        }
    }
    JOINT LeftUpLeg
    {
        OFFSET 8.824615 0.000000 0.000000
        CHANNELS 3 Zrotation Xrotation Yrotation
        JOINT LeftLeg
        {
            OFFSET -0.000000 -35.111282 0.000000
            CHANNELS 3 Zrotation Xrotation Yrotation
            JOINT LeftFoot
            {
                OFFSET -0.000000 -42.324711 0.000000
                CHANNELS 3 Zrotation Xrotation Yrotation
                JOINT LeftToeBase
                {
                    OFFSET -0.000000 -5.735999 13.236923
                    CHANNELS 3 Zrotation Xrotation Yrotation
                    End Site
                    {
                        OFFSET -0.000000 0.000000 3.529846
                    }
                }
            }
        }
    }
    JOINT RightUpLeg
    {
        OFFSET -8.824615 0.000000 0.000000
        CHANNELS 3 Zrotation Xrotation Yrotation
        JOINT RightLeg
        {
            OFFSET -0.000000 -35.111282 0.000000
            CHANNELS 3 Zrotation Xrotation Yrotation
            JOINT RightFoot
            {
                OFFSET -0.000000 -42.324711 0.000000
                CHANNELS 3 Zrotation Xrotation Yrotation
                JOINT RightToeBase
                {
                    OFFSET -0.000000 -5.735999 13.236923
                    CHANNELS 3 Zrotation Xrotation Yrotation
                    End Site
                    {
                        OFFSET -0.000000 0.000000 3.529846
                    }
                }
            }
        }
    }
}
MOTION
Frames:    8
Frame Time:    0.008333
3.156580    79.537842    108.424141    -1.250601    -6.313220    -174.493942    -1.859157    -10.336066    0.119530    -1.688682    5.918305    0.375256    4.716262    5.298037    -2.443819    3.820600    -4.721760    -2.321665    2.158841    17.796425    -1.963115    -50.786839    38.924034    -35.912422    0.971009    -6.192488    -15.628224    18.490200    -5.765934    1.816126    7.230083    19.040903    -9.056540    44.833801    42.114216    32.834785    -3.206907    -9.360271    18.630682    -15.580564    -8.391708    -3.318643    6.086691    -11.497529    -1.827671    -1.491014    18.172653    -2.491256    -7.043563    -12.247409    -6.414469    -0.979940    0.088634    1.086051    -12.796833    -0.343543    -4.581326    4.466455    3.463355    1.869227    5.758798    -6.112533    -13.826789    -0.383204    -0.850852    0.414953    
3.137661    79.533104    108.403305    -1.247810    -6.302889    -174.478104    -1.855345    -10.338548    0.122712    -1.693820    5.924592    0.378160    4.715748    5.281079    -2.464375    3.828044    -4.737734    -2.341858    2.134456    17.828682    -1.930467    -51.014469    38.718430    -35.778366    0.999036    -6.284765    -15.575665    18.363758    -5.864253    1.770761    7.239452    19.045166    -9.081553    44.794266    42.203110    32.890095    -3.271505    -9.324830    18.878273    -15.499140    -8.347924    -3.266379    6.066512    -11.527016    -1.829249    -1.474547    18.267767    -2.492981    -7.033581    -12.291935    -6.431065    -0.978151    0.096189    1.084053    -12.802991    -0.317603    -4.592599    4.461486    3.472395    1.837542    5.774557    -6.121380    -13.795353    -0.383776    -0.847001    0.415570    
3.118224    79.528313    108.382080    -1.245018    -6.292588    -174.462509    -1.851580    -10.341083    0.125692    -1.698730    5.930821    0.381503    4.714756    5.263947    -2.485670    3.835859    -4.754108    -2.362694    2.109402    17.861601    -1.896353    -51.246788    38.505692    -35.641003    1.027067    -6.377704    -15.520853    18.232794    -5.963440    1.724261    7.248592    19.049597    -9.106929    44.754440    42.291828    32.945751    -3.338004    -9.287436    19.130888    -15.417352    -8.301464    -3.213124    6.045754    -11.556968    -1.830523    -1.457571    18.364294    -2.493706    -7.023836    -12.337031    -6.448928    -0.976345    0.104341    1.082037    -12.809523    -0.291064    -4.603980    4.456622    3.480690    1.805144    5.790673    -6.129966    -13.762864    -0.384436    -0.842644    0.416283    
3.099101    79.523766    108.361687    -1.242328    -6.283625    -174.448349    -1.848037    -10.343915    0.128955    -1.703029    5.936316    0.384627    4.713214    5.247450    -2.506941    3.843644    -4.770166    -2.383434    2.084783    17.892931    -1.861828    -51.473789    38.295227    -35.504551    1.053042    -6.465365    -15.465110    18.104645    -6.057200    1.679636    7.257130    19.053608    -9.131308    44.716671    42.374939    32.997383    -3.402495    -9.248847    19.376909    -15.340535    -8.253645    -3.161390    6.025377    -11.586710    -1.831363    -1.441050    18.457413    -2.493155    -7.014674    -12.380370    -6.466958    -0.974603    0.112462    1.080090    -12.816235    -0.265952    -4.615250    4.452062    3.487123    1.773018    5.806654    -6.137277    -13.729722    -0.384903    -0.838768    0.416786    
3.079969    79.519409    108.341827    -1.239519    -6.275784    -174.435806    -1.844572    -10.346768    0.132343    -1.706438    5.940920    0.387969    4.710847    5.231520    -2.528701    3.851476    -4.786043    -2.404573    2.060276    17.923096    -1.826190    -51.698448    38.083794    -35.366505    1.076882    -6.547422    -15.406324    17.981136    -6.144935    1.638784    7.264903    19.057148    -9.154963    44.680996    42.452675    33.044720    -3.465545    -9.207981    19.619589    -15.268106    -8.203322    -3.110233    6.005367    -11.616234    -1.831671    -1.424893    18.547955    -2.490337    -7.006240    -12.422318    -6.486178    -0.972923    0.120950    1.078212    -12.823125    -0.241335    -4.626257    4.448013    3.490603    1.740700    5.822673    -6.142856    -13.695446    -0.385317    -0.835414    0.417232    
3.060750    79.515312    108.322594    -1.236928    -6.269521    -174.425140    -1.841489    -10.350048    0.135981    -1.708945    5.944576    0.391487    4.707774    5.216779    -2.551022    3.859123    -4.802194    -2.426208    2.036190    17.952318    -1.789460    -51.919304    37.871746    -35.227261    1.098051    -6.622046    -15.343625    17.867617    -6.224298    1.604992    7.271684    19.060320    -9.177661    44.647465    42.525066    33.086952    -3.527000    -9.165291    19.858410    -15.200862    -8.150994    -3.059811    5.985324    -11.645708    -1.832099    -1.409403    18.635422    -2.484721    -6.998311    -12.462706    -6.506145    -0.971397    0.130282    1.076502    -12.830791    -0.217415    -4.637023    4.444788    3.490420    1.707943    5.838751    -6.146212    -13.659673    -0.385661    -0.832199    0.417603    
3.041260    79.511452    108.303879    -1.234423    -6.264684    -174.416595    -1.838541    -10.353445    0.139885    -1.710716    5.947073    0.395458    4.704247    5.202377    -2.574147    3.866292    -4.817683    -2.448704    2.012655    17.980343    -1.751249    -52.137112    37.658787    -35.085575    1.117024    -6.688927    -15.275565    17.766146    -6.294685    1.580119    7.277704    19.062931    -9.199617    44.615749    42.592842    33.123611    -3.587327    -9.120843    20.094721    -15.138061    -8.096737    -3.009385    5.965339    -11.674958    -1.832966    -1.394823    18.719975    -2.475507    -6.990873    -12.501586    -6.527161    -0.970125    0.140156    1.075074    -12.839053    -0.194193    -4.647891    4.442031    3.486732    1.671914    5.855558    -6.146906    -13.619043    -0.385757    -0.829686    0.417705    
3.021536    79.507858    108.285759    -1.232131    -6.261485    -174.410324    -1.835856    -10.357242    0.144347    -1.711707    5.948453    0.399690    4.700205    5.188669    -2.598048    3.873184    -4.832341    -2.471988    1.990045    18.007545    -1.712423    -52.349495    37.446163    -34.942516    1.133668    -6.747892    -15.201945    17.677137    -6.355980    1.563824    7.282888    19.064716    -9.220391    44.586082    42.656464    33.153744    -3.646650    -9.075916    20.326668    -15.079555    -8.041862    -2.959229    5.945368    -11.703761    -1.834735    -1.381498    18.800791    -2.461701    -6.983618    -12.538576    -6.549403    -0.969204    0.151161    1.074032    -12.847986    -0.172377    -4.658844    4.439617    3.479901    1.630047    5.873328    -6.144525    -13.570948    -0.385761    -0.827446    0.417708    
